<svg width="22" height="21" viewBox="0 0 22 21" fill="none" xmlns="http://www.w3.org/2000/svg">
<path d="M4.2876 3.9375H20.0376L18.0688 12.4688H6.25635M18.0688 15.0938H6.9126L3.63135 1.3125H1.6626" stroke="black" stroke-width="1.3125" stroke-linecap="round" stroke-linejoin="round"/>
<path d="M16.7563 19.0312C17.4812 19.0312 18.0688 18.4436 18.0688 17.7188C18.0688 16.9939 17.4812 16.4062 16.7563 16.4062C16.0315 16.4062 15.4438 16.9939 15.4438 17.7188C15.4438 18.4436 16.0315 19.0312 16.7563 19.0312Z" stroke="black" stroke-width="1.3125" stroke-linecap="round" stroke-linejoin="round"/>
<path d="M8.2251 19.0312C8.94997 19.0312 9.5376 18.4436 9.5376 17.7188C9.5376 16.9939 8.94997 16.4062 8.2251 16.4062C7.50022 16.4062 6.9126 16.9939 6.9126 17.7188C6.9126 18.4436 7.50022 19.0312 8.2251 19.0312Z" stroke="black" stroke-width="1.3125" stroke-linecap="round" stroke-linejoin="round"/>
</svg>
