<svg width="50" height="37" viewBox="0 0 50 37" fill="none" xmlns="http://www.w3.org/2000/svg">
<g clip-path="url(#clip0_6_1281)">
<path opacity="0.07" d="M41 5.7998H9C7.3 5.7998 6 7.0998 6 8.7998V26.7998C6 28.4998 7.4 29.7998 9 29.7998H41C42.7 29.7998 44 28.4998 44 26.7998V8.7998C44 7.0998 42.6 5.7998 41 5.7998Z" fill="black"/>
<path d="M41 6.7998C42.1 6.7998 43 7.6998 43 8.7998V26.7998C43 27.8998 42.1 28.7998 41 28.7998H9C7.9 28.7998 7 27.8998 7 26.7998V8.7998C7 7.6998 7.9 6.7998 9 6.7998H41Z" fill="white"/>
<path d="M29.9 14.0998C30.1 13.0998 29.9 12.3998 29.3 11.7998C28.7 11.0998 27.6 10.7998 26.2 10.7998H22.1C21.8 10.7998 21.6 10.9998 21.5 11.2998L20 21.3998C20 21.5998 20.1 21.7998 20.3 21.7998H23L23.4 18.3998L25.2 16.1998L29.9 14.0998Z" fill="#003087"/>
<path d="M29.9001 14.0996L29.7001 14.2996C29.2001 17.0996 27.5001 18.0996 25.1001 18.0996H24.0001C23.7001 18.0996 23.5001 18.2996 23.4001 18.5996L22.8001 22.4996L22.6001 23.4996C22.6001 23.6996 22.7001 23.8996 22.9001 23.8996H25.0001C25.3001 23.8996 25.5001 23.6996 25.5001 23.4996V23.3996L25.9001 20.9996V20.8996C25.9001 20.6996 26.2001 20.4996 26.4001 20.4996H26.7001C28.8001 20.4996 30.4001 19.6996 30.8001 17.2996C31.0001 16.2996 30.9001 15.4996 30.4001 14.8996C30.3001 14.3996 30.1001 14.1996 29.9001 14.0996Z" fill="#3086C8"/>
<path d="M29.2999 13.8996C29.1999 13.7996 29.0999 13.7996 28.9999 13.7996C28.8999 13.7996 28.7999 13.7996 28.6999 13.6996C28.3999 13.5996 27.9999 13.5996 27.5999 13.5996H24.5999C24.4999 13.5996 24.3999 13.5996 24.3999 13.6996C24.1999 13.7996 24.0999 13.8996 24.0999 14.0996L23.3999 18.4996V18.5996C23.3999 18.2996 23.6999 18.0996 23.9999 18.0996H25.2999C27.7999 18.0996 29.3999 17.0996 29.8999 14.2996V14.0996C29.7999 13.9996 29.5999 13.8996 29.3999 13.8996H29.2999Z" fill="#012169"/>
</g>
<defs>
<clipPath id="clip0_6_1281">
<rect width="40" height="24" fill="white" transform="translate(5 5.7998)"/>
</clipPath>
</defs>
</svg>
