<svg width="21" height="20" viewBox="0 0 21 20" fill="none" xmlns="http://www.w3.org/2000/svg">
<path d="M13.5791 10.3234C14.4451 9.71026 15.0937 8.83748 15.4309 7.83134C15.768 6.8252 15.7764 5.73787 15.4547 4.72668C15.133 3.71548 14.4979 2.83286 13.6413 2.2065C12.7848 1.58015 11.7511 1.24255 10.69 1.24255C9.62886 1.24255 8.59524 1.58015 7.73868 2.2065C6.88212 2.83286 6.24704 3.71548 5.92533 4.72668C5.60362 5.73787 5.61196 6.8252 5.94914 7.83134C6.28633 8.83748 6.93487 9.71026 7.80094 10.3234C6.11202 10.8156 4.62807 11.8418 3.57144 13.2483C2.5148 14.6548 1.94238 16.3658 1.93994 18.125C1.93994 18.2908 2.00579 18.4497 2.123 18.5669C2.24021 18.6841 2.39918 18.75 2.56494 18.75H18.8149C18.9807 18.75 19.1397 18.6841 19.2569 18.5669C19.3741 18.4497 19.4399 18.2908 19.4399 18.125C19.4375 16.3658 18.8651 14.6548 17.8085 13.2483C16.7519 11.8419 15.268 10.8156 13.5791 10.3234ZM6.93994 6.25C6.93994 5.50832 7.15988 4.78329 7.57193 4.16661C7.98399 3.54992 8.56966 3.06928 9.25488 2.78545C9.9401 2.50162 10.6941 2.42736 11.4215 2.57205C12.149 2.71674 12.8171 3.0739 13.3416 3.59834C13.866 4.12279 14.2232 4.79098 14.3679 5.51841C14.5126 6.24584 14.4383 6.99984 14.1545 7.68506C13.8707 8.37028 13.39 8.95595 12.7733 9.36801C12.1566 9.78006 11.4316 10 10.6899 10C9.69573 9.99886 8.74256 9.60341 8.03954 8.90039C7.33653 8.19738 6.94107 7.24421 6.93994 6.25ZM3.21807 17.5C3.37601 15.7927 4.16542 14.2057 5.43178 13.0497C6.69815 11.8938 8.35032 11.252 10.0649 11.25H11.3149C13.0296 11.252 14.6817 11.8938 15.9481 13.0497C17.2145 14.2057 18.0039 15.7927 18.1618 17.5H3.21807Z" fill="black"/>
</svg>
